<svg id="Layer_1" data-name="Layer 1" xmlns="http://www.w3.org/2000/svg" viewBox="0 0 725.79 239.08"><defs><style>.cls-1{fill:#83ae43;}.cls-2{fill:#91b753;}.cls-3{fill:#2a3033;}</style></defs><title>WizeHire-Logo-Color</title><path class="cls-1" d="M726.88,62.21A61.56,61.56,0,0,0,671.25,1.15a5.2,5.2,0,0,0-5.68,5.2V44.68A2.48,2.48,0,0,1,663,47.22h0a2.47,2.47,0,0,1-2.42-1.82A61.28,61.28,0,0,0,607.29,1.27a5.2,5.2,0,0,0-5.69,5.2V44.8a2.48,2.48,0,0,1-2.54,2.54h0a2.48,2.48,0,0,1-2.42-1.81A61.29,61.29,0,0,0,543.32,1.39a5.21,5.21,0,0,0-5.69,5.2V51.33h0A61.35,61.35,0,0,0,598.22,112h67.35c31.92,0,47.64,20.8,55.14,38.22a3.25,3.25,0,0,0,6.29-1.09l-.12-86.95Z" transform="translate(-1.21 -1.13)"/><polygon class="cls-2" points="128.3 77.29 128.3 77.29 128.3 77.29 128.3 77.29"/><path class="cls-3" d="M200.74,166.93h46.07l-47.64,52.6v18.39h80.05V216.75H231.45l47.77-52.6V145.77h-78.6v21.16Zm-87.31,30.72c0,6.16-1.33,10.88-4,14s-6.29,4.6-11,4.72c-4.84-.12-8.47-1.57-11-4.72s-3.87-7.73-4-13.9V146.25H57.32v51.52c0,6.17-1.33,10.76-4,13.9s-6.29,4.6-11,4.72c-4.84-.12-8.47-1.57-11-4.72s-4-7.86-4-14v-51.4H1.21V203a21.56,21.56,0,0,0,.49,4.84,41.46,41.46,0,0,0,40.39,32.28h.48a41.3,41.3,0,0,0,27.81-10.76,41.31,41.31,0,0,0,27.81,10.76h.49a41.38,41.38,0,0,0,40.39-32.28,21.43,21.43,0,0,0,.48-4.84V146.25H113.43v51.4ZM157,237.92h26.12V145.77H157ZM170,138.52A13.06,13.06,0,1,0,157,125.46,13.08,13.08,0,0,0,170,138.52Zm337.74,0a13.06,13.06,0,1,0-13.06-13.06A13.25,13.25,0,0,0,507.76,138.52Zm85,5.56q-11.41-.54-18.5,5.08a38,38,0,0,0-10.88,15.23V145.77H537.27v92.15h26.12v-34c0-11.13,2.54-19.35,7.5-24.55s11.85-7.86,20.55-7.86h1.33Zm95.41,29.26a47.38,47.38,0,0,0-10.4-15.11,49.38,49.38,0,0,0-15.72-10.16,52.87,52.87,0,0,0-19.71-3.75,51,51,0,0,0-20,3.75,50.24,50.24,0,0,0-15.84,10.28A47.8,47.8,0,0,0,596,173.58a45.82,45.82,0,0,0-3.75,18.63v.36A45.74,45.74,0,0,0,596,211.19a47.59,47.59,0,0,0,10.4,15.12,48.22,48.22,0,0,0,15.72,10.15,52.9,52.9,0,0,0,19.71,3.75,51,51,0,0,0,20-3.75,50.39,50.39,0,0,0,15.84-10.27A47.79,47.79,0,0,0,688.18,211l.37-1.09H663.64A44,44,0,0,1,653,217.12a29.82,29.82,0,0,1-11.73,2.17,23.85,23.85,0,0,1-14.75-4.59c-4-3-6.53-7.5-7.86-13.55h72.19a52.74,52.74,0,0,0,.85-8.94v-.37A41.78,41.78,0,0,0,688.18,173.34ZM618.89,185c1.21-5.92,3.75-10.76,7.74-14.27s9.19-5.32,15.6-5.32,11.61,1.81,15.6,5.44A24.26,24.26,0,0,1,665.09,185ZM369.55,158.23a49.6,49.6,0,0,0-15.72-10.16,52.94,52.94,0,0,0-19.71-3.75,51,51,0,0,0-20,3.75,50.47,50.47,0,0,0-15.84,10.28,47.8,47.8,0,0,0-10.52,15.23,45.82,45.82,0,0,0-3.75,18.63v.36a45.74,45.74,0,0,0,3.75,18.62,47.59,47.59,0,0,0,10.4,15.12,48.44,48.44,0,0,0,15.72,10.15,52.94,52.94,0,0,0,19.71,3.75,50.62,50.62,0,0,0,35.8-14A48,48,0,0,0,380,211l.36-1.09H355.4a44.1,44.1,0,0,1-10.64,7.26A29.89,29.89,0,0,1,333,219.29a23.83,23.83,0,0,1-14.75-4.59c-4-3-6.53-7.5-7.86-13.55h72.19a53.8,53.8,0,0,0,.84-8.94v-.37a45.76,45.76,0,0,0-3.74-18.62A44,44,0,0,0,369.55,158.23ZM310.66,185c1.21-5.92,3.75-10.76,7.74-14.27s9.19-5.32,15.6-5.32,11.61,1.81,15.6,5.44A24.25,24.25,0,0,1,356.85,185Zm184,53h26.12V145.77H494.7Zm-47.4-93.84a29.07,29.07,0,0,0-8.95,1.21,32.82,32.82,0,0,0-7.25,3.26,31.63,31.63,0,0,0-5.93,4.72,71.35,71.35,0,0,0-4.95,5.56V112.4H394.1V237.92h26.12v-51.4c0-6.16,1.45-10.88,4.35-14s6.89-4.72,12-4.72,8.95,1.57,11.73,4.72,4.11,7.86,4.11,14v51.4H478.5V178.3c0-10.64-2.78-19-8.22-25.15C465.08,147.1,457.34,144.08,447.3,144.08Z" transform="translate(-1.21 -1.13)"/></svg>